<svg xmlns="http://www.w3.org/2000/svg" version="1.1" xmlns:xlink="http://www.w3.org/1999/xlink" xmlns:svgjs="http://svgjs.com/svgjs" width="512" height="512" x="0" y="0" viewBox="0 0 512 512" style="enable-background:new 0 0 512 512" xml:space="preserve" class=""><g><circle cx="432" cy="152" r="55" fill="#103c65" data-original="#00357b" class="" opacity="1"></circle><path fill="#072f54" d="M432 207V97c30.33 0 55 24.67 55 55s-24.67 55-55 55z" data-original="#001737" class="" opacity="1"></path><path fill="#103c65" d="M512 308.49v108.17c0 16.73-13.66 30.34-30.46 30.34H376.06c-8.28 0-15-6.72-15-15 0-14.583-8.06-88.471-8.06-123.51 0-37.21 30.46-67.49 67.9-67.49h23.2c37.44 0 67.9 30.28 67.9 67.49z" data-original="#00357b" class="" opacity="1"></path><path fill="#072f54" d="M512 308.49v108.17c0 16.73-13.66 30.34-30.46 30.34H432V241h12.1c37.44 0 67.9 30.28 67.9 67.49z" data-original="#001737" class="" opacity="1"></path><circle cx="80" cy="152" r="55" fill="#103c65" data-original="#00357b" class="" opacity="1"></circle><path fill="#072f54" d="M80 207V97c30.33 0 55 24.67 55 55s-24.67 55-55 55z" data-original="#001737" class="" opacity="1"></path><path fill="#103c65" d="M159 308.49c0 36.163-8.06 108.265-8.06 123.51 0 8.28-6.72 15-15 15H29.41C13.19 447 0 433.86 0 417.7V308.49C0 271.28 30.46 241 67.9 241h23.2c37.44 0 67.9 30.28 67.9 67.49z" data-original="#00357b" class="" opacity="1"></path><path fill="#072f54" d="M159 308.49c0 36.163-8.06 108.265-8.06 123.51 0 8.28-6.72 15-15 15H80V241h11.1c37.44 0 67.9 30.28 67.9 67.49z" data-original="#001737" class="" opacity="1"></path><circle cx="256" cy="120" r="87" fill="#dbc156" data-original="#58b354" class="" opacity="1"></circle><path fill="#c8aa30" d="M256 207V33c47.97 0 87 39.03 87 87s-39.03 87-87 87z" data-original="#00a963" class="" opacity="1"></path><path fill="#dbc156" d="M391 362.02v81.96c0 19.31-15.71 35.02-35.02 35.02H156.02c-19.31 0-35.02-15.71-35.02-35.02v-81.96C121 295.29 175.29 241 242.02 241h27.96C336.71 241 391 295.29 391 362.02z" data-original="#58b354" class="" opacity="1"></path><path fill="#c8aa30" d="M391 362.02v81.96c0 19.31-15.71 35.02-35.02 35.02H256V241h13.98C336.71 241 391 295.29 391 362.02z" data-original="#00a963" class="" opacity="1"></path></g></svg>