<svg xmlns="http://www.w3.org/2000/svg" version="1.1" xmlns:xlink="http://www.w3.org/1999/xlink" xmlns:svgjs="http://svgjs.com/svgjs" width="512" height="512" x="0" y="0" viewBox="0 0 512 512" style="enable-background:new 0 0 512 512" xml:space="preserve" class=""><g><circle cx="256" cy="256" r="256" fill="#072f54" fill-rule="evenodd" clip-rule="evenodd" transform="rotate(-45 255.972 256.066)" data-original="#76e2f8" class="" opacity="1"></circle><path fill="#2e6ca5" fill-rule="evenodd" d="M256 0c141.385 0 256 114.615 256 256S397.385 512 256 512z" clip-rule="evenodd" data-original="#3aaaff" class="" opacity="1"></path><circle cx="256" cy="256" r="207.484" fill="#ffffff" fill-rule="evenodd" clip-rule="evenodd" transform="rotate(-45 255.972 256.066)" data-original="#ffffff" class=""></circle><path fill="#c8aa30" d="M145.263 80.683a207.679 207.679 0 0 1 14.261-8.27l11.42 19.78a8.243 8.243 0 0 1-14.294 8.214zM256 79.873a8.28 8.28 0 0 0 8.279-8.279V48.696c-2.748-.109-5.505-.18-8.278-.18-2.774 0-5.531.071-8.279.18v22.898A8.278 8.278 0 0 0 256 79.873zm207.304 167.849h-22.898a8.28 8.28 0 0 0 0 16.558h22.898c.109-2.748.18-5.505.18-8.279 0-2.775-.072-5.532-.18-8.279zm-54.751-79.818a8.243 8.243 0 0 0 11.254 3.04l19.78-11.42a207.679 207.679 0 0 0-8.27-14.261l-19.724 11.388a8.242 8.242 0 0 0-3.04 11.253zm-249.015 271.69 11.406-19.755a8.26 8.26 0 0 0-14.294-8.278l-11.401 19.748a207.83 207.83 0 0 0 14.289 8.285zm260.301-98.538a8.26 8.26 0 0 0-8.278 14.294l19.748 11.401a208.08 208.08 0 0 0 8.286-14.289zM92.161 170.944a8.26 8.26 0 0 0 8.278-14.294l-19.748-11.402a208.08 208.08 0 0 0-8.286 14.289zm-43.464 93.335h22.898a8.28 8.28 0 0 0 0-16.558H48.697c-.109 2.748-.18 5.505-.18 8.279-.001 2.774.071 5.531.18 8.279zm51.71 91.071a8.243 8.243 0 0 0-8.214-14.294l-19.78 11.42c2.573 4.87 5.33 9.628 8.27 14.261zM352.462 72.405 341.056 92.16a8.26 8.26 0 0 0 14.294 8.278l11.402-19.748a208.676 208.676 0 0 0-14.29-8.285zm-88.183 390.899v-22.898a8.28 8.28 0 0 0-16.558 0v22.898c2.748.109 5.505.18 8.279.18s5.531-.072 8.279-.18zm91.071-51.711a8.243 8.243 0 0 0-14.294 8.214l11.42 19.78c4.87-2.573 9.628-5.33 14.261-8.27z" data-original="#697c86" class="" opacity="1"></path><path fill="#e3cc6f" d="m411.593 156.65 19.724-11.388a207.679 207.679 0 0 1 8.27 14.261l-19.78 11.42a8.243 8.243 0 0 1-8.214-14.293zm8.246 184.406a8.26 8.26 0 0 0-8.278 14.294l19.748 11.401a208.08 208.08 0 0 0 8.286-14.289zM352.462 72.405 341.056 92.16a8.26 8.26 0 0 0 14.294 8.278l11.402-19.748a208.676 208.676 0 0 0-14.29-8.285zm110.842 175.317h-22.898a8.28 8.28 0 0 0 0 16.558h22.898c.109-2.748.18-5.505.18-8.279 0-2.775-.072-5.532-.18-8.279zM264.279 71.594V48.696c-2.748-.109-5.505-.18-8.278-.18v31.357a8.28 8.28 0 0 0 8.278-8.279zm91.071 339.999a8.243 8.243 0 0 0-14.294 8.214l11.42 19.78c4.87-2.573 9.628-5.33 14.261-8.27zM256 463.484c2.774 0 5.531-.071 8.278-.18v-22.898a8.28 8.28 0 0 0-8.279-8.279z" data-original="#3b4a51" class="" opacity="1"></path><g fill-rule="evenodd" clip-rule="evenodd"><path fill="#c8aa30" d="M264.258 256c0 4.561-3.697 8.258-8.258 8.258s-8.258-3.697-8.258-8.258V116.586c0-4.561 3.697-8.258 8.258-8.258s8.258 3.697 8.258 8.258z" data-original="#697c86" class="" opacity="1"></path><path fill="#e3cc6f" d="M264.258 256a8.258 8.258 0 0 1-8.258 8.258v-155.93a8.258 8.258 0 0 1 8.258 8.258z" data-original="#3b4a51" class="" opacity="1"></path><path fill="#e3cc6f" d="M251.903 263.129a8.222 8.222 0 0 1 8.194-14.258L352.5 302.22a8.222 8.222 0 1 1-8.194 14.258z" data-original="#3b4a51" class="" opacity="1"></path><path fill="#c8aa30" d="M256 283.421c15.103 0 27.421-12.318 27.421-27.421S271.103 228.579 256 228.579 228.578 240.897 228.578 256c.001 15.103 12.319 27.421 27.422 27.421z" data-original="#697c86" class="" opacity="1"></path><path fill="#e3cc6f" d="M256 228.579c15.144 0 27.421 12.277 27.421 27.421S271.144 283.421 256 283.421z" data-original="#3b4a51" class="" opacity="1"></path></g></g></svg>