<svg xmlns="http://www.w3.org/2000/svg" version="1.1" xmlns:xlink="http://www.w3.org/1999/xlink" xmlns:svgjs="http://svgjs.com/svgjs" width="512" height="512" x="0" y="0" viewBox="0 0 48 48" style="enable-background:new 0 0 512 512" xml:space="preserve" class=""><g><g data-name="08-House"><path fill="#586889" d="M47 43v4H1v-4h41z" data-original="#586889" class=""></path><path fill="#c8aa30" d="M42 13.18 24 5 6 13.18 2 15v-4L24 1l22 10v4z" data-original="#57ff9b" class="" opacity="1"></path><path fill="#e3c23e" d="M2 13v2l4-1.82L24 5l18 8.18L46 15v-2L24 3z" data-original="#41c67d" class="" opacity="1"></path><path fill="#ccd3eb" d="M42 13.18V43H6V13.18L24 5z" data-original="#ccd3eb" class=""></path><path fill="#586889" d="M24 5 6 13.182v3.998L24 9l18 8.18v-3.998z" data-original="#586889" class=""></path><path fill="#2b3e5b" d="M24 5 6 13.182v1L24 6l18 8.182v-1z" data-original="#2b3e5b"></path><path fill="#96a1c3" d="M1 43h46v1H1z" data-original="#96a1c3" class=""></path><path fill="#415372" d="M1 46h46v1H1z" data-original="#415372" class=""></path><rect width="16" height="1" x="27" y="43" fill="#adb5d5" rx=".5" data-original="#adb5d5" class=""></rect><rect width="2" height="1" x="44" y="43" fill="#adb5d5" rx=".5" data-original="#adb5d5" class=""></rect><rect width="6" height="1" x="5" y="45" fill="#415372" rx=".5" data-original="#415372" class=""></rect><rect width="2" height="1" x="12" y="45" fill="#415372" rx=".5" data-original="#415372" class=""></rect><rect width="38" height="1" x="5" y="46" fill="#2b3e5b" rx=".5" data-original="#2b3e5b"></rect><path fill="#adb5d5" d="M6 17.18V43h2V16.271z" data-original="#adb5d5" class=""></path><path fill="#dee3f3" d="M40 43h2V17.18l-2-.909z" data-original="#dee3f3" class=""></path><path fill="#415372" d="m8 13.273-2 .909v2.998l2-.909z" data-original="#415372" class=""></path><path fill="#7989af" d="m40 16.271 2 .909v-2.998l-2-.909z" data-original="#7989af" class=""></path><path fill="#415372" d="m40 13.273 2 .909v-1l-2-.909z" data-original="#415372" class=""></path><path fill="#192b44" d="m8 12.273-2 .909v1l2-.909z" data-original="#192b44" class=""></path><rect width="1" height="16" x="7" y="27" fill="#96a1c3" rx=".5" data-original="#96a1c3" class=""></rect><rect width="1" height="2" x="7" y="24" fill="#96a1c3" rx=".5" data-original="#96a1c3" class=""></rect><rect width="1" height="16" x="40" y="17" fill="#f0f3ff" rx=".5" data-original="#f0f3ff" class=""></rect><rect width="1" height="2" x="40" y="34" fill="#f0f3ff" rx=".5" data-original="#f0f3ff" class=""></rect><path fill="#b79d35" d="M24 22h2v2h-1v19h-2V23a1 1 0 0 1 1-1z" data-original="#07a260" class="" opacity="1"></path><path fill="#05674c" d="M25 24h1v-1h-1a1 1 0 0 0-1 1v19h1z" data-original="#05674c"></path><path fill="#b79d35" d="M24 31h-6a6.009 6.009 0 0 1-6-6h6a6.009 6.009 0 0 1 6 6z" data-original="#07a260" class="" opacity="1"></path><path fill="#e3c23e" d="M36 17v2a6 6 0 0 1-6 6h-6v-2a6 6 0 0 1 6-6zM30 30h6a6.009 6.009 0 0 1-6 6h-6a6.009 6.009 0 0 1 6-6z" data-original="#41c67d" class="" opacity="1"></path><path fill="#c8aa30" d="M30 20c5-1 6-3 6-3h-6a6 6 0 0 0-6 6v2a7.458 7.458 0 0 1 6-5z" data-original="#57ff9b" class="" opacity="1"></path><path fill="#cfad22" d="M24 25a7.458 7.458 0 0 1 6-5h-5.189A5.954 5.954 0 0 0 24 23z" data-original="#4de890" class="" opacity="1"></path><path fill="#b79d35" d="M30 20a7.458 7.458 0 0 0-6 5h5.189A5.954 5.954 0 0 0 30 22z" data-original="#07a260" class="" opacity="1"></path><path fill="#cfad22" d="M24 31a6.009 6.009 0 0 0-6-6h-6a13.834 13.834 0 0 0 7 2c4 0 5 4 5 4z" data-original="#4de890" class="" opacity="1"></path><path fill="#c8aa30" d="M24 36a6.009 6.009 0 0 1 6-6h6a13.834 13.834 0 0 1-7 2c-4 0-5 4-5 4z" data-original="#57ff9b" class="" opacity="1"></path><path fill="#e3c23e" d="M19 27a5.94 5.94 0 0 0 1.54 4H24s-1-4-5-4z" data-original="#41c67d" class="" opacity="1"></path><path fill="#c8aa30" d="M24 31a5.94 5.94 0 0 0-1.54-4H19c4 0 5 4 5 4z" data-original="#57ff9b" class="" opacity="1"></path><path fill="#b79d35" d="M24 36h3.46A5.94 5.94 0 0 0 29 32c-4 0-5 4-5 4z" data-original="#07a260" class="" opacity="1"></path><path fill="#cfad22" d="M29 32h-3.46A5.94 5.94 0 0 0 24 36s1-4 5-4z" data-original="#4de890" class="" opacity="1"></path><path fill="#415372" d="M25 36v2h3a5.991 5.991 0 0 0 5.119-2.881A5.949 5.949 0 0 1 30 36zM23 27.686V23a1 1 0 0 1 1-1h.09a5.981 5.981 0 0 1 .815-2.132A6.013 6.013 0 0 0 22.09 24H22a1 1 0 0 0-1 1v.809a6.034 6.034 0 0 1 2 1.877zM25 25v2h3a5.992 5.992 0 0 0 5.117-2.883A5.945 5.945 0 0 1 30 25zM23 34.686V31h-5a6 6 0 0 1-5.652-4H10a6.009 6.009 0 0 0 6 6h5v10h2z" data-original="#415372" class=""></path><path fill="#ffda44" d="m24 3 22 10v-2L24 1 10.664 7.062q.173.919.389 1.823z" data-original="#b3ffd2" class="" opacity="1"></path><path fill="#c8aa30" d="M11.053 8.885q.216.9.473 1.784L24 5l18 8.18L46 15v-2L24 3z" data-original="#57ff9b" class="" opacity="1"></path><path fill="#ccd3eb" d="m40 12.273 2 .909v-.002L24 5z" data-original="#ccd3eb" class=""></path><path fill="#f0f3ff" d="m24 9-11.281 5.127A37.983 37.983 0 0 0 19.6 25.221a6.016 6.016 0 0 1 4.139 4.013A37.817 37.817 0 0 0 40 37.151v-20.88z" data-original="#f0f3ff" class=""></path><path fill="#ccd3eb" d="M11.526 10.669v.001L24 5z" data-original="#ccd3eb" class=""></path><path fill="#7989af" d="M40 16.271v-3L24 6l-12.211 5.55c.279.874.592 1.731.93 2.577L24 9z" data-original="#7989af" class=""></path><path fill="#415372" d="m24 6 16 7.273v-1L24 5l-12.474 5.67c.086.294.171.589.263.88z" data-original="#415372" class=""></path><path fill="#f0f3ff" d="M40 17.5a.5.5 0 0 1 1 0v15a.5.5 0 0 1-1 0v2a.5.5 0 0 1 1 0v1a.5.5 0 0 1-1 0v1.651a37.7 37.7 0 0 0 2 .374V17.18l-2-.909z" data-original="#f0f3ff" class=""></path><path fill="#7989af" d="m40 16.271 2 .909z" data-original="#7989af" class=""></path><path fill="#96a1c3" d="m40 16.271 2 .909v-2.998l-2-.909z" data-original="#96a1c3" class=""></path><path fill="#7989af" d="m40 13.273 2 .909z" data-original="#7989af" class=""></path><path fill="#415372" d="m40 12.273 2 .909z" data-original="#415372" class=""></path><path fill="#65769c" d="m40 13.273 2 .909v-1l-2-.909z" data-original="#65769c" class=""></path><path fill="#ffffff" d="M40.5 33a.5.5 0 0 0 .5-.5v-15a.5.5 0 0 0-1 0v15a.5.5 0 0 0 .5.5zM40.5 36a.5.5 0 0 0 .5-.5v-1a.5.5 0 0 0-1 0v1a.5.5 0 0 0 .5.5z" data-original="#ffffff" class=""></path><path fill="#7989af" d="M23 27.686V23a1 1 0 0 1 1-1h.09a5.981 5.981 0 0 1 .815-2.132A6.013 6.013 0 0 0 22.09 24H22a1 1 0 0 0-1 1v.809a6.034 6.034 0 0 1 2 1.877zM25 25v2h3a5.992 5.992 0 0 0 5.117-2.883A5.945 5.945 0 0 1 30 25z" data-original="#7989af" class=""></path><path fill="#cfad22" d="M30 20v2a5.954 5.954 0 0 1-.811 3H30a6 6 0 0 0 6-6v-2s-1 2-6 3zM28.919 32.865a37.721 37.721 0 0 0 4.335 2.172A6.01 6.01 0 0 0 36 30a13.834 13.834 0 0 1-7 2 6.006 6.006 0 0 1-.081.865z" data-original="#4de890" class="" opacity="1"></path><path fill="#c8aa30" d="M24.2 21.5a5.675 5.675 0 0 0-.107.5v.037c.024-.181.058-.36.107-.537z" data-original="#57ff9b" class="" opacity="1"></path><path fill="#ffda44" d="M36 17h-6a6 6 0 0 0-5.189 3H30c5-1 6-3 6-3z" data-original="#b3ffd2" class="" opacity="1"></path><path fill="#c8aa30" d="M24.23 21.374A6.029 6.029 0 0 1 24.811 20a5.966 5.966 0 0 0-.581 1.374z" data-original="#57ff9b" class="" opacity="1"></path><path fill="#e3c23e" d="M23.11 27.867a5.865 5.865 0 0 1 .468.93l.022.059c.051.133.1.266.142.4l.258.209V23a5.974 5.974 0 0 1 .05-.737c.008-.061.018-.121.028-.182L24.09 22H24a1 1 0 0 0-1 1v4.686c.034.051.064.106.1.159z" data-original="#41c67d" class="" opacity="1"></path><path fill="#b79d35" d="M24 23a5.974 5.974 0 0 1 .05-.737A5.974 5.974 0 0 0 24 23zM24.087 22.037V22l-.012.081a.36.36 0 0 0 .012-.044zM24 29.469c.328.267.663.528 1 .785V25h-1z" data-original="#07a260" class="" opacity="1"></path><path fill="#cfad22" d="M23.1 27.845c-.033-.053-.063-.108-.1-.159v.03c.03.045.068.084.1.129zM23.11 27.867a5.908 5.908 0 0 1 .468.93 5.865 5.865 0 0 0-.468-.93z" data-original="#4de890" class="" opacity="1"></path><path fill="#ffda44" d="M29 32a13.834 13.834 0 0 0 7-2h-6a5.942 5.942 0 0 0-3.641 1.24c.377.261.759.513 1.145.76z" data-original="#b3ffd2" class="" opacity="1"></path><path fill="#c8aa30" d="m23.1 27.845.013.022zM23.578 28.8l.022.059c-.008-.023-.014-.043-.022-.059z" data-original="#57ff9b" class="" opacity="1"></path><path fill="#e3c23e" d="M27.74 32.152q.582.366 1.179.713A6.006 6.006 0 0 0 29 32a5.254 5.254 0 0 0-1.26.152z" data-original="#41c67d" class="" opacity="1"></path><path fill="#cfad22" d="m27.5 32 .236.152A5.254 5.254 0 0 1 29 32zM24.2 21.5c.011-.043.021-.087.033-.129a1.066 1.066 0 0 0-.033.129z" data-original="#4de890" class="" opacity="1"></path><path fill="#c8aa30" d="M24 23v2a7.458 7.458 0 0 1 6-5h-5.189a6.029 6.029 0 0 0-.581 1.374c-.012.042-.022.086-.033.129-.046.174-.08.353-.11.534A5.874 5.874 0 0 0 24 23z" data-original="#57ff9b" class="" opacity="1"></path><path fill="#cfad22" d="M24.05 22.263c.007-.061.018-.121.028-.182-.01.061-.02.119-.028.182z" data-original="#4de890" class="" opacity="1"></path><path fill="#cfad22" d="M24.078 22.081c-.01.061-.021.121-.028.182A5.974 5.974 0 0 0 24 23a5.874 5.874 0 0 1 .087-.963c-.003.015-.007.029-.009.044z" data-original="#4de890" class="" opacity="1"></path><path fill="#e3c23e" d="M30 20a7.458 7.458 0 0 0-6 5h5.189A5.954 5.954 0 0 0 30 22z" data-original="#41c67d" class="" opacity="1"></path><g fill="#f6fafd"><ellipse cx="17.746" cy="18.5" rx=".413" ry=".574" transform="rotate(-45 17.755 18.51)" fill="#f6fafd" data-original="#f6fafd" class=""></ellipse><ellipse cx="28.746" cy="18.5" rx=".413" ry=".574" transform="rotate(-45 28.759 18.51)" fill="#f6fafd" data-original="#f6fafd" class=""></ellipse><ellipse cx="32.746" cy="33.5" rx=".413" ry=".574" transform="rotate(-45 32.762 33.517)" fill="#f6fafd" data-original="#f6fafd" class=""></ellipse><ellipse cx="19" cy="21" rx=".825" ry="1.148" transform="rotate(-45 19.008 21.01)" fill="#f6fafd" data-original="#f6fafd" class=""></ellipse><ellipse cx="38" cy="35" rx=".825" ry="1.148" transform="rotate(-45 38.018 35.017)" fill="#f6fafd" data-original="#f6fafd" class=""></ellipse></g><path fill="#072f54" d="M47 42h-4v-2h-2v2H25v-5h5a7.008 7.008 0 0 0 7-7 1 1 0 0 0-1-1h-6a6.977 6.977 0 0 0-5 2.11V26h5a7.008 7.008 0 0 0 7-7v-2a1 1 0 0 0-1-1h-6a7.008 7.008 0 0 0-7 7v3.11A6.977 6.977 0 0 0 18 24h-6a1 1 0 0 0-1 1 7.008 7.008 0 0 0 7 7h5v10H11v2h35v2H2v-2h7v-2H7V19H5v23H1a1 1 0 0 0-1 1v4a1 1 0 0 0 1 1h46a1 1 0 0 0 1-1v-4a1 1 0 0 0-1-1zM30 31h4.9a5.008 5.008 0 0 1-4.9 4h-4.9a5.008 5.008 0 0 1 4.9-4zm-5-8a5.006 5.006 0 0 1 5-5h5v1a5.006 5.006 0 0 1-5 5h-5zm-7 7a5.008 5.008 0 0 1-4.9-4H18a5.008 5.008 0 0 1 4.9 4z" data-original="#112135" class="" opacity="1"></path><path fill="#072f54" d="M1.458 15.841a1 1 0 0 0 .956.069L5 14.735V17h2v-3.174L24 6.1l17 7.727V38h2V14.735l2.586 1.175A1 1 0 0 0 47 15v-4a1 1 0 0 0-.586-.91l-22-10a1 1 0 0 0-.828 0l-22 10A1 1 0 0 0 1 11v4a1 1 0 0 0 .458.841zM3 11.644 24 2.1l17.181 7.808L45 11.644v1.8L24.414 4.09a1 1 0 0 0-.828 0L3 13.447z" data-original="#112135" class="" opacity="1"></path></g></g></svg>