<svg xmlns="http://www.w3.org/2000/svg" version="1.1" xmlns:xlink="http://www.w3.org/1999/xlink" xmlns:svgjs="http://svgjs.com/svgjs" width="512" height="512" x="0" y="0" viewBox="0 0 512 512" style="enable-background:new 0 0 512 512" xml:space="preserve" class=""><g><path fill="#ffe07d" d="m157.357 455.533 71.347-172.242-57.295-23.733-82.202 198.447c-3.463 8.361 4.372 16.977 13.023 14.323l46.611-14.304a10.267 10.267 0 0 1 4.084-.42z" data-original="#ffe07d" class="" opacity="1"></path><path fill="#ebbf5b" d="m225.653 282.027-72.728 175.577a10.692 10.692 0 0 1 8.507 5.636l22.844 43.074c4.24 7.995 15.873 7.442 19.337-.918l82.202-198.448z" data-original="#ffd064" class="" opacity="1"></path><path fill="#ffe07d" d="m287.948 281.364-61.762 25.584 82.202 198.448c3.463 8.361 15.096 8.913 19.337.918l22.844-43.074a10.67 10.67 0 0 1 2.769-3.343l5.593-7.069z" data-original="#ffe07d" class="" opacity="1"></path><path fill="#ebbf5b" d="m422.793 458.005-82.202-198.448-59.951 24.833 72.702 175.512a10.694 10.694 0 0 1 9.817-1.879l46.611 14.304c8.652 2.656 16.487-5.961 13.023-14.322z" data-original="#ffd064" class="" opacity="1"></path><path fill="#c8aa30" d="M276.641 7.194a33.212 33.212 0 0 0 30.49 5.7c14.738-4.577 30.686 1.602 38.494 14.913a33.21 33.21 0 0 0 26.372 16.329c15.396 1.056 28.035 12.579 30.508 27.812a33.21 33.21 0 0 0 18.693 24.753c13.975 6.547 21.598 21.857 18.401 36.954a33.21 33.21 0 0 0 8.488 29.834c10.666 11.153 12.244 28.183 3.809 41.106a33.209 33.209 0 0 0-2.862 30.886c5.917 14.253 1.236 30.703-11.297 39.706a33.21 33.21 0 0 0-13.826 27.766c.369 15.428-9.938 29.076-24.878 32.944a33.212 33.212 0 0 0-22.923 20.897c-5.229 14.519-19.771 23.523-35.099 21.732a33.212 33.212 0 0 0-28.924 11.205c-10.121 11.65-26.933 14.792-40.579 7.586a33.21 33.21 0 0 0-31.018 0c-13.646 7.207-30.458 4.064-40.579-7.586a33.21 33.21 0 0 0-28.924-11.205c-15.328 1.791-29.869-7.213-35.099-21.732a33.21 33.21 0 0 0-22.923-20.897c-14.94-3.867-25.247-17.516-24.878-32.944a33.21 33.21 0 0 0-13.826-27.766c-12.534-9.003-17.214-25.453-11.297-39.706a33.209 33.209 0 0 0-2.862-30.886c-8.435-12.923-6.857-29.953 3.809-41.106a33.213 33.213 0 0 0 8.489-29.834c-3.197-15.097 4.426-30.408 18.401-36.954a33.213 33.213 0 0 0 18.693-24.753c2.472-15.233 15.112-26.755 30.508-27.812a33.21 33.21 0 0 0 26.372-16.329c7.808-13.311 23.757-19.489 38.494-14.913a33.209 33.209 0 0 0 30.49-5.7c12.09-9.592 29.194-9.592 41.283 0z" data-original="#e8ae4d" class="" opacity="1"></path><path fill="#ffe07d" d="M346.606 200.58c0-67.705-43.678-125.205-104.392-145.87-74.451 6.948-132.725 69.603-132.725 145.87s58.274 138.922 132.725 145.87c60.715-20.665 104.392-78.164 104.392-145.87z" data-original="#ffe07d" class="" opacity="1"></path><path fill="#ebbf5b" d="M256 54.07a146.97 146.97 0 0 0-32.63 3.652c65.208 14.832 113.88 73.159 113.88 142.858s-48.672 128.026-113.88 142.858A146.97 146.97 0 0 0 256 347.09c80.915 0 146.51-65.595 146.51-146.51S336.915 54.07 256 54.07z" data-original="#ffd064" class="" opacity="1"></path><path fill="#c8aa30" d="m260.036 256.813 50.567 34.038c1.988 1.338 4.185 1.535 6.108.943a155.56 155.56 0 0 0 5.151-7.446 7.638 7.638 0 0 0-.271-1.479l-16.746-58.61a7.228 7.228 0 0 1 2.495-7.678l38.618-30.231a153.74 153.74 0 0 0-3.297-20.563l-52.436-1.881a7.227 7.227 0 0 1-6.531-4.745L262.79 101.9c-2.312-6.333-11.269-6.333-13.581 0l-20.903 57.259a7.228 7.228 0 0 1-6.531 4.745l-60.916 2.185c-6.738.242-9.505 8.76-4.197 12.916l47.998 37.574a7.23 7.23 0 0 1 2.495 7.678l-16.746 58.61c-1.852 6.483 5.394 11.747 10.987 7.983l50.567-34.038a7.233 7.233 0 0 1 8.073.001z" data-original="#e8ae4d" class="" opacity="1"></path><g fill="#e5a32e"><path d="M310.603 290.851c5.593 3.765 12.839-1.5 10.987-7.983l-3.036-10.627a146.81 146.81 0 0 1-10.896 16.628zM351.141 166.09l-18.136-.651a146.44 146.44 0 0 1 4.062 27.87l18.271-14.303c5.308-4.155 2.54-12.674-4.197-12.916z" fill="#c8aa30" data-original="#e5a32e" class="" opacity="1"></path></g></g></svg>