<svg xmlns="http://www.w3.org/2000/svg" version="1.1" xmlns:xlink="http://www.w3.org/1999/xlink" xmlns:svgjs="http://svgjs.com/svgjs" width="512" height="512" x="0" y="0" viewBox="0 0 512 512" style="enable-background:new 0 0 512 512" xml:space="preserve" class=""><g><path d="M317.8 335.3c-5.7-.3-11.1 2.1-14.099 6.901L256 416.6l-47.701-74.399c-2.999-4.801-8.399-7.5-14.099-6.901C94.9 345.801 31 379.701 31 422c0 58.5 115.8 90 225 90s225-31.5 225-90c0-42.299-63.9-76.199-163.2-86.7z" style="" fill="#365e83" data-original="#61de56" class="" opacity="1"></path><path d="M481 422c0 58.5-115.8 90-225 90v-95.4l47.701-74.399c2.999-4.801 8.399-7.202 14.099-6.901C417.1 345.801 481 379.701 481 422z" style="" fill="#072f54" data-original="#13c37b" class="" opacity="1"></path><path d="M256 0C166 0 91 72.599 91 165c0 35.099 10.499 66.599 30.901 96l121.5 191.6c2.999 4.799 7.8 6.899 12.6 6.899 4.799 0 9.6-2.1 12.599-6.899l122.1-192.2c19.801-28.2 30.3-61.2 30.3-95.4C421 74.099 346.901 0 256 0zm0 240c-41.355 0-75-33.645-75-75s33.645-75 75-75 75 33.645 75 75-33.645 75-75 75z" style="" fill="#d7bd52" data-original="#fd3018" class="" opacity="1"></path><path d="M256 0v90c41.355 0 75 33.645 75 75s-33.645 75-75 75v219.5c4.799 0 9.6-2.1 12.599-6.899L390.7 260.4c19.801-28.2 30.3-61.2 30.3-95.4C421 74.099 346.901 0 256 0z" style="" fill="#c8aa30" data-original="#e61e14" class="" opacity="1"></path></g></svg>