<svg xmlns="http://www.w3.org/2000/svg" xmlns:xlink="http://www.w3.org/1999/xlink" width="500" zoomAndPan="magnify" viewBox="0 0 375 374.999991" height="500" preserveAspectRatio="xMidYMid meet" version="1.0"><defs><g/><clipPath id="4961daa45f"><path d="M 160 105 L 183.660156 105 L 183.660156 129 L 160 129 Z M 160 105 " clip-rule="nonzero"/></clipPath><clipPath id="963af95a6b"><path d="M 141 83.796875 L 155 83.796875 L 155 97 L 141 97 Z M 141 83.796875 " clip-rule="nonzero"/></clipPath></defs><path fill="#072f54" d="M 84.917969 122.515625 C 107.371094 113.171875 130.375 111.636719 148.753906 116.726562 C 127.855469 107.472656 98.796875 107.722656 70.5625 119.46875 C 25.792969 138.109375 0.0859375 178.570312 13.140625 209.855469 C 22.765625 232.914062 50.769531 244.53125 82.769531 241.585938 C 43.695312 232.394531 34.90625 215.210938 31.390625 206.757812 C 19.214844 177.597656 43.1875 139.875 84.917969 122.515625 Z M 84.917969 122.515625 " fill-opacity="1" fill-rule="nonzero"/><path fill="#dfc24a" d="M 179.246094 145.226562 C 176.78125 139.332031 172.820312 134.359375 167.753906 130.394531 C 151.066406 117.300781 122.265625 115.101562 94.445312 126.675781 C 74.011719 135.183594 58.476562 149.300781 50.707031 164.550781 C 59.972656 152.757812 73.601562 142.324219 90.277344 135.386719 C 125.207031 120.855469 161.589844 126.511719 176.976562 147.425781 C 178.769531 149.867188 180.296875 152.5 181.480469 155.339844 C 181.621094 155.675781 181.730469 156.019531 181.859375 156.355469 C 181.589844 152.542969 180.742188 148.816406 179.246094 145.226562 Z M 179.246094 145.226562 " fill-opacity="1" fill-rule="nonzero"/><g clip-path="url(#4961daa45f)"><path fill="#072f54" d="M 183.542969 116.675781 C 174.949219 118.257812 173.667969 119.535156 172.082031 128.117188 C 170.5 119.535156 169.21875 118.257812 160.625 116.675781 C 169.21875 115.089844 170.5 113.8125 172.082031 105.230469 C 173.667969 113.824219 174.949219 115.101562 183.542969 116.675781 Z M 183.542969 116.675781 " fill-opacity="1" fill-rule="nonzero"/></g><g clip-path="url(#963af95a6b)"><path fill="#dfc24a" d="M 154.972656 90.289062 C 150.695312 91.511719 149.699219 92.507812 148.472656 96.777344 C 147.246094 92.507812 146.246094 91.511719 141.972656 90.289062 C 146.246094 89.0625 147.246094 88.066406 148.472656 83.796875 C 149.699219 88.066406 150.695312 89.0625 154.972656 90.289062 Z M 154.972656 90.289062 " fill-opacity="1" fill-rule="nonzero"/></g><path fill="#072f54" d="M 172.082031 94.632812 C 169.945312 95.25 169.445312 95.75 168.828125 97.882812 C 168.210938 95.75 167.710938 95.25 165.574219 94.632812 C 167.710938 94.015625 168.210938 93.515625 168.828125 91.382812 C 169.445312 93.515625 169.945312 94.015625 172.082031 94.632812 Z M 172.082031 94.632812 " fill-opacity="1" fill-rule="nonzero"/><g fill="#dfc24a" fill-opacity="1"><g transform="translate(37.323778, 217.048419)"><g><path d="M 23.109375 -7.875 C 24.429688 -7.875 25.71875 -8.070312 26.96875 -8.46875 C 28.226562 -8.875 29.148438 -9.265625 29.734375 -9.640625 L 30.609375 -10.234375 L 34.3125 -2.828125 C 34.1875 -2.734375 34.015625 -2.609375 33.796875 -2.453125 C 33.585938 -2.296875 33.085938 -2.007812 32.296875 -1.59375 C 31.515625 -1.175781 30.675781 -0.8125 29.78125 -0.5 C 28.882812 -0.195312 27.707031 0.0703125 26.25 0.3125 C 24.800781 0.5625 23.304688 0.6875 21.765625 0.6875 C 18.210938 0.6875 14.847656 -0.179688 11.671875 -1.921875 C 8.492188 -3.660156 5.929688 -6.054688 3.984375 -9.109375 C 2.035156 -12.171875 1.0625 -15.476562 1.0625 -19.03125 C 1.0625 -21.71875 1.632812 -24.296875 2.78125 -26.765625 C 3.925781 -29.234375 5.445312 -31.347656 7.34375 -33.109375 C 9.238281 -34.867188 11.453125 -36.273438 13.984375 -37.328125 C 16.515625 -38.378906 19.109375 -38.90625 21.765625 -38.90625 C 24.234375 -38.90625 26.507812 -38.609375 28.59375 -38.015625 C 30.675781 -37.429688 32.148438 -36.847656 33.015625 -36.265625 L 34.3125 -35.375 L 30.609375 -27.96875 C 30.390625 -28.15625 30.0625 -28.378906 29.625 -28.640625 C 29.195312 -28.898438 28.332031 -29.242188 27.03125 -29.671875 C 25.738281 -30.109375 24.429688 -30.328125 23.109375 -30.328125 C 21.003906 -30.328125 19.117188 -29.988281 17.453125 -29.3125 C 15.785156 -28.632812 14.46875 -27.738281 13.5 -26.625 C 12.53125 -25.519531 11.789062 -24.328125 11.28125 -23.046875 C 10.769531 -21.765625 10.515625 -20.457031 10.515625 -19.125 C 10.515625 -16.226562 11.601562 -13.628906 13.78125 -11.328125 C 15.957031 -9.023438 19.066406 -7.875 23.109375 -7.875 Z M 23.109375 -7.875 "/></g></g></g><g fill="#dfc24a" fill-opacity="1"><g transform="translate(72.197047, 217.048419)"><g><path d="M 1.0625 -19.125 C 1.0625 -24.65625 2.941406 -29.332031 6.703125 -33.15625 C 10.472656 -36.988281 15.015625 -38.90625 20.328125 -38.90625 C 25.671875 -38.90625 30.207031 -37 33.9375 -33.1875 C 37.675781 -29.375 39.546875 -24.6875 39.546875 -19.125 C 39.546875 -13.539062 37.707031 -8.84375 34.03125 -5.03125 C 30.363281 -1.21875 25.796875 0.6875 20.328125 0.6875 C 14.742188 0.6875 10.132812 -1.203125 6.5 -4.984375 C 2.875 -8.765625 1.0625 -13.476562 1.0625 -19.125 Z M 10.46875 -19.125 C 10.46875 -17.113281 10.773438 -15.28125 11.390625 -13.625 C 12.003906 -11.976562 13.082031 -10.582031 14.625 -9.4375 C 16.175781 -8.300781 18.078125 -7.734375 20.328125 -7.734375 C 23.566406 -7.734375 26.015625 -8.84375 27.671875 -11.0625 C 29.328125 -13.289062 30.15625 -15.976562 30.15625 -19.125 C 30.15625 -22.238281 29.3125 -24.914062 27.625 -27.15625 C 25.9375 -29.394531 23.503906 -30.515625 20.328125 -30.515625 C 17.179688 -30.515625 14.75 -29.394531 13.03125 -27.15625 C 11.320312 -24.914062 10.46875 -22.238281 10.46875 -19.125 Z M 10.46875 -19.125 "/></g></g></g><g fill="#dfc24a" fill-opacity="1"><g transform="translate(112.813065, 217.048419)"><g><path d="M 16.859375 -38.90625 C 18.921875 -38.90625 20.941406 -38.601562 22.921875 -38 C 24.898438 -37.394531 26.367188 -36.800781 27.328125 -36.21875 L 28.71875 -35.296875 L 25.1875 -28.34375 C 24.914062 -28.53125 24.53125 -28.769531 24.03125 -29.0625 C 23.539062 -29.351562 22.613281 -29.742188 21.25 -30.234375 C 19.894531 -30.734375 18.628906 -30.984375 17.453125 -30.984375 C 16.003906 -30.984375 14.882812 -30.671875 14.09375 -30.046875 C 13.3125 -29.429688 12.921875 -28.601562 12.921875 -27.5625 C 12.921875 -27.03125 13.101562 -26.539062 13.46875 -26.09375 C 13.84375 -25.644531 14.476562 -25.164062 15.375 -24.65625 C 16.269531 -24.144531 17.054688 -23.734375 17.734375 -23.421875 C 18.410156 -23.117188 19.460938 -22.660156 20.890625 -22.046875 C 23.359375 -20.992188 25.460938 -19.5625 27.203125 -17.75 C 28.953125 -15.945312 29.828125 -13.90625 29.828125 -11.625 C 29.828125 -9.4375 29.429688 -7.519531 28.640625 -5.875 C 27.859375 -4.238281 26.78125 -2.957031 25.40625 -2.03125 C 24.03125 -1.101562 22.507812 -0.421875 20.84375 0.015625 C 19.175781 0.460938 17.367188 0.6875 15.421875 0.6875 C 13.753906 0.6875 12.117188 0.515625 10.515625 0.171875 C 8.910156 -0.160156 7.566406 -0.582031 6.484375 -1.09375 C 5.398438 -1.601562 4.425781 -2.101562 3.5625 -2.59375 C 2.695312 -3.082031 2.066406 -3.5 1.671875 -3.84375 L 1.0625 -4.359375 L 5.421875 -11.671875 C 5.785156 -11.359375 6.289062 -10.960938 6.9375 -10.484375 C 7.59375 -10.003906 8.742188 -9.363281 10.390625 -8.5625 C 12.046875 -7.757812 13.507812 -7.359375 14.78125 -7.359375 C 18.445312 -7.359375 20.28125 -8.609375 20.28125 -11.109375 C 20.28125 -11.640625 20.148438 -12.128906 19.890625 -12.578125 C 19.628906 -13.023438 19.164062 -13.472656 18.5 -13.921875 C 17.832031 -14.367188 17.242188 -14.722656 16.734375 -14.984375 C 16.234375 -15.242188 15.398438 -15.644531 14.234375 -16.1875 C 13.078125 -16.726562 12.222656 -17.132812 11.671875 -17.40625 C 9.359375 -18.550781 7.566406 -19.976562 6.296875 -21.6875 C 5.035156 -23.40625 4.40625 -25.253906 4.40625 -27.234375 C 4.40625 -30.660156 5.671875 -33.460938 8.203125 -35.640625 C 10.734375 -37.816406 13.617188 -38.90625 16.859375 -38.90625 Z M 16.859375 -38.90625 "/></g></g></g><g fill="#dfc24a" fill-opacity="1"><g transform="translate(143.93503, 217.048419)"><g><path d="M 0.375 -30.5625 L 0.375 -38.203125 L 27.234375 -38.203125 L 27.234375 -30.5625 L 18.15625 -30.5625 L 18.15625 0 L 9.453125 0 L 9.453125 -30.5625 Z M 0.375 -30.5625 "/></g></g></g><g fill="#dfc24a" fill-opacity="1"><g transform="translate(171.537251, 217.048419)"><g><path d="M 22.1875 -38.203125 L 37.609375 0 L 28.25 0 L 25.421875 -7.640625 L 10.890625 -7.640625 L 8.0625 0 L -1.296875 0 L 14.125 -38.203125 Z M 22.46875 -15.28125 L 18.203125 -26.390625 L 18.109375 -26.390625 L 13.84375 -15.28125 Z M 22.46875 -15.28125 "/></g></g></g><g fill="#072f54" fill-opacity="1"><g transform="translate(207.843298, 217.048419)"><g/></g></g><g fill="#072f54" fill-opacity="1"><g transform="translate(220.486592, 217.048419)"><g><path d="M 1.0625 -19.125 C 1.0625 -24.65625 2.941406 -29.332031 6.703125 -33.15625 C 10.472656 -36.988281 15.015625 -38.90625 20.328125 -38.90625 C 25.671875 -38.90625 30.207031 -37 33.9375 -33.1875 C 37.675781 -29.375 39.546875 -24.6875 39.546875 -19.125 C 39.546875 -13.539062 37.707031 -8.84375 34.03125 -5.03125 C 30.363281 -1.21875 25.796875 0.6875 20.328125 0.6875 C 14.742188 0.6875 10.132812 -1.203125 6.5 -4.984375 C 2.875 -8.765625 1.0625 -13.476562 1.0625 -19.125 Z M 10.46875 -19.125 C 10.46875 -17.113281 10.773438 -15.28125 11.390625 -13.625 C 12.003906 -11.976562 13.082031 -10.582031 14.625 -9.4375 C 16.175781 -8.300781 18.078125 -7.734375 20.328125 -7.734375 C 23.566406 -7.734375 26.015625 -8.84375 27.671875 -11.0625 C 29.328125 -13.289062 30.15625 -15.976562 30.15625 -19.125 C 30.15625 -22.238281 29.3125 -24.914062 27.625 -27.15625 C 25.9375 -29.394531 23.503906 -30.515625 20.328125 -30.515625 C 17.179688 -30.515625 14.75 -29.394531 13.03125 -27.15625 C 11.320312 -24.914062 10.46875 -22.238281 10.46875 -19.125 Z M 10.46875 -19.125 "/></g></g></g><g fill="#072f54" fill-opacity="1"><g transform="translate(261.10261, 217.048419)"><g><path d="M 22.1875 -38.203125 L 37.609375 0 L 28.25 0 L 25.421875 -7.640625 L 10.890625 -7.640625 L 8.0625 0 L -1.296875 0 L 14.125 -38.203125 Z M 22.46875 -15.28125 L 18.203125 -26.390625 L 18.109375 -26.390625 L 13.84375 -15.28125 Z M 22.46875 -15.28125 "/></g></g></g><g fill="#072f54" fill-opacity="1"><g transform="translate(297.411575, 217.048419)"><g><path d="M 16.859375 -38.90625 C 18.921875 -38.90625 20.941406 -38.601562 22.921875 -38 C 24.898438 -37.394531 26.367188 -36.800781 27.328125 -36.21875 L 28.71875 -35.296875 L 25.1875 -28.34375 C 24.914062 -28.53125 24.53125 -28.769531 24.03125 -29.0625 C 23.539062 -29.351562 22.613281 -29.742188 21.25 -30.234375 C 19.894531 -30.734375 18.628906 -30.984375 17.453125 -30.984375 C 16.003906 -30.984375 14.882812 -30.671875 14.09375 -30.046875 C 13.3125 -29.429688 12.921875 -28.601562 12.921875 -27.5625 C 12.921875 -27.03125 13.101562 -26.539062 13.46875 -26.09375 C 13.84375 -25.644531 14.476562 -25.164062 15.375 -24.65625 C 16.269531 -24.144531 17.054688 -23.734375 17.734375 -23.421875 C 18.410156 -23.117188 19.460938 -22.660156 20.890625 -22.046875 C 23.359375 -20.992188 25.460938 -19.5625 27.203125 -17.75 C 28.953125 -15.945312 29.828125 -13.90625 29.828125 -11.625 C 29.828125 -9.4375 29.429688 -7.519531 28.640625 -5.875 C 27.859375 -4.238281 26.78125 -2.957031 25.40625 -2.03125 C 24.03125 -1.101562 22.507812 -0.421875 20.84375 0.015625 C 19.175781 0.460938 17.367188 0.6875 15.421875 0.6875 C 13.753906 0.6875 12.117188 0.515625 10.515625 0.171875 C 8.910156 -0.160156 7.566406 -0.582031 6.484375 -1.09375 C 5.398438 -1.601562 4.425781 -2.101562 3.5625 -2.59375 C 2.695312 -3.082031 2.066406 -3.5 1.671875 -3.84375 L 1.0625 -4.359375 L 5.421875 -11.671875 C 5.785156 -11.359375 6.289062 -10.960938 6.9375 -10.484375 C 7.59375 -10.003906 8.742188 -9.363281 10.390625 -8.5625 C 12.046875 -7.757812 13.507812 -7.359375 14.78125 -7.359375 C 18.445312 -7.359375 20.28125 -8.609375 20.28125 -11.109375 C 20.28125 -11.640625 20.148438 -12.128906 19.890625 -12.578125 C 19.628906 -13.023438 19.164062 -13.472656 18.5 -13.921875 C 17.832031 -14.367188 17.242188 -14.722656 16.734375 -14.984375 C 16.234375 -15.242188 15.398438 -15.644531 14.234375 -16.1875 C 13.078125 -16.726562 12.222656 -17.132812 11.671875 -17.40625 C 9.359375 -18.550781 7.566406 -19.976562 6.296875 -21.6875 C 5.035156 -23.40625 4.40625 -25.253906 4.40625 -27.234375 C 4.40625 -30.660156 5.671875 -33.460938 8.203125 -35.640625 C 10.734375 -37.816406 13.617188 -38.90625 16.859375 -38.90625 Z M 16.859375 -38.90625 "/></g></g></g><g fill="#072f54" fill-opacity="1"><g transform="translate(328.53354, 217.048419)"><g><path d="M 11.484375 -38.203125 L 11.484375 0 L 2.78125 0 L 2.78125 -38.203125 Z M 11.484375 -38.203125 "/></g></g></g><g fill="#072f54" fill-opacity="1"><g transform="translate(342.797776, 217.048419)"><g><path d="M 16.859375 -38.90625 C 18.921875 -38.90625 20.941406 -38.601562 22.921875 -38 C 24.898438 -37.394531 26.367188 -36.800781 27.328125 -36.21875 L 28.71875 -35.296875 L 25.1875 -28.34375 C 24.914062 -28.53125 24.53125 -28.769531 24.03125 -29.0625 C 23.539062 -29.351562 22.613281 -29.742188 21.25 -30.234375 C 19.894531 -30.734375 18.628906 -30.984375 17.453125 -30.984375 C 16.003906 -30.984375 14.882812 -30.671875 14.09375 -30.046875 C 13.3125 -29.429688 12.921875 -28.601562 12.921875 -27.5625 C 12.921875 -27.03125 13.101562 -26.539062 13.46875 -26.09375 C 13.84375 -25.644531 14.476562 -25.164062 15.375 -24.65625 C 16.269531 -24.144531 17.054688 -23.734375 17.734375 -23.421875 C 18.410156 -23.117188 19.460938 -22.660156 20.890625 -22.046875 C 23.359375 -20.992188 25.460938 -19.5625 27.203125 -17.75 C 28.953125 -15.945312 29.828125 -13.90625 29.828125 -11.625 C 29.828125 -9.4375 29.429688 -7.519531 28.640625 -5.875 C 27.859375 -4.238281 26.78125 -2.957031 25.40625 -2.03125 C 24.03125 -1.101562 22.507812 -0.421875 20.84375 0.015625 C 19.175781 0.460938 17.367188 0.6875 15.421875 0.6875 C 13.753906 0.6875 12.117188 0.515625 10.515625 0.171875 C 8.910156 -0.160156 7.566406 -0.582031 6.484375 -1.09375 C 5.398438 -1.601562 4.425781 -2.101562 3.5625 -2.59375 C 2.695312 -3.082031 2.066406 -3.5 1.671875 -3.84375 L 1.0625 -4.359375 L 5.421875 -11.671875 C 5.785156 -11.359375 6.289062 -10.960938 6.9375 -10.484375 C 7.59375 -10.003906 8.742188 -9.363281 10.390625 -8.5625 C 12.046875 -7.757812 13.507812 -7.359375 14.78125 -7.359375 C 18.445312 -7.359375 20.28125 -8.609375 20.28125 -11.109375 C 20.28125 -11.640625 20.148438 -12.128906 19.890625 -12.578125 C 19.628906 -13.023438 19.164062 -13.472656 18.5 -13.921875 C 17.832031 -14.367188 17.242188 -14.722656 16.734375 -14.984375 C 16.234375 -15.242188 15.398438 -15.644531 14.234375 -16.1875 C 13.078125 -16.726562 12.222656 -17.132812 11.671875 -17.40625 C 9.359375 -18.550781 7.566406 -19.976562 6.296875 -21.6875 C 5.035156 -23.40625 4.40625 -25.253906 4.40625 -27.234375 C 4.40625 -30.660156 5.671875 -33.460938 8.203125 -35.640625 C 10.734375 -37.816406 13.617188 -38.90625 16.859375 -38.90625 Z M 16.859375 -38.90625 "/></g></g></g></svg>