<svg xmlns="http://www.w3.org/2000/svg" xmlns:xlink="http://www.w3.org/1999/xlink" width="500" zoomAndPan="magnify" viewBox="0 0 375 374.999991" height="500" preserveAspectRatio="xMidYMid meet" version="1.0"><defs><clipPath id="c18b180bbd"><path d="M 289 23.203125 L 317 23.203125 L 317 50 L 289 50 Z M 289 23.203125 " clip-rule="nonzero"/></clipPath></defs><path fill="#072f54" d="M 173.386719 102.347656 C 219.230469 83.253906 266.203125 80.109375 303.738281 90.519531 C 261.0625 71.601562 201.726562 72.113281 144.070312 96.125 C 52.648438 134.222656 0.160156 216.9375 26.816406 280.886719 C 46.46875 328.023438 103.65625 351.769531 169 345.746094 C 89.210938 326.960938 71.261719 291.828125 64.082031 274.550781 C 39.222656 214.941406 88.167969 137.835938 173.386719 102.347656 Z M 173.386719 102.347656 " fill-opacity="1" fill-rule="nonzero"/><path fill="#dfc24a" d="M 366 148.777344 C 360.96875 136.726562 352.882812 126.558594 342.535156 118.453125 C 308.457031 91.695312 249.652344 87.199219 192.839844 110.855469 C 151.117188 128.242188 119.386719 157.105469 103.523438 188.273438 C 122.445312 164.171875 150.277344 142.839844 184.332031 128.664062 C 255.65625 98.960938 329.949219 110.523438 361.367188 153.273438 C 365.023438 158.257812 368.148438 163.640625 370.5625 169.445312 C 370.851562 170.132812 371.074219 170.839844 371.339844 171.527344 C 370.785156 163.730469 369.058594 156.109375 366 148.777344 Z M 366 148.777344 " fill-opacity="1" fill-rule="nonzero"/><path fill="#072f54" d="M 374.773438 90.410156 C 357.226562 93.644531 354.609375 96.257812 351.375 113.800781 C 348.140625 96.257812 345.527344 93.644531 327.976562 90.410156 C 345.527344 87.175781 348.140625 84.5625 351.375 67.019531 C 354.609375 84.582031 357.226562 87.199219 374.773438 90.410156 Z M 374.773438 90.410156 " fill-opacity="1" fill-rule="nonzero"/><g clip-path="url(#c18b180bbd)"><path fill="#dfc24a" d="M 316.433594 36.472656 C 307.703125 38.976562 305.664062 41.011719 303.160156 49.738281 C 300.65625 41.011719 298.621094 38.976562 289.890625 36.472656 C 298.621094 33.96875 300.65625 31.929688 303.160156 23.203125 C 305.664062 31.929688 307.703125 33.96875 316.433594 36.472656 Z M 316.433594 36.472656 " fill-opacity="1" fill-rule="nonzero"/></g><path fill="#072f54" d="M 351.375 45.355469 C 347.011719 46.617188 345.992188 47.636719 344.730469 52 C 343.464844 47.636719 342.445312 46.617188 338.082031 45.355469 C 342.445312 44.089844 343.464844 43.074219 344.730469 38.707031 C 345.992188 43.074219 347.011719 44.089844 351.375 45.355469 Z M 351.375 45.355469 " fill-opacity="1" fill-rule="nonzero"/></svg>