<svg xmlns="http://www.w3.org/2000/svg" version="1.1" xmlns:xlink="http://www.w3.org/1999/xlink" xmlns:svgjs="http://svgjs.com/svgjs" width="512" height="512" x="0" y="0" viewBox="0 0 512 512" style="enable-background:new 0 0 512 512" xml:space="preserve" class=""><g><path d="M200.845 183.073c5.859-5.859 5.859-15.352 0-21.211L94.791 55.793c-5.625-5.625-15.586-5.625-21.211 0L31.15 98.222l58.748 83.796 68.516 43.486 42.431-42.431z" style="" fill="#072f54" data-original="#7fe881" class="" opacity="1"></path><path d="m455.406 416.423-106.055-106.07c-5.859-5.859-15.352-5.859-21.211 0l-42.433 42.422 44.191 99.243 83.079 28.044 42.429-42.429c5.859-5.859 5.859-15.351 0-21.21z" style="" fill="#072f54" data-original="#5bc980" class="" opacity="1"></path><path d="m412.998 479.918-.901.899c-28.008 28.429-72.917 40.888-115.499 22.5-70.501-31.8-126-73.2-170.101-117.9-56.398-56.699-93.3-118.2-116.999-169.499-18.3-39.3-9.6-86.4 21.301-117.301l.298-.3 127.202 127.202-12.902 13.2c15.601 26.398 34.501 50.4 56.1 71.699 21.301 21.601 45 39.901 71.102 55.501l13.2-13.2 127.199 127.199z" style="" fill="#072f54" data-original="#5bc980" class="" opacity="1"></path><path d="m412.998 479.918-.901.899c-28.008 28.429-72.917 40.888-115.499 22.5-70.501-31.8-126-73.2-170.101-117.9l75-75c21.301 21.601 45 39.901 71.102 55.501l13.2-13.2 127.199 127.2z" style="" fill="#27547d" data-original="#00ab5e" class="" opacity="1"></path><path d="M512 225.018c0 8.399-6.599 15-15 15s-15-6.601-15-15c0-53.701-21.899-102.601-57.299-137.701C389.6 51.918 340.699 30.018 287 30.018c-8.401 0-15-6.601-15-15 0-8.401 6.599-15 15-15 62.1 0 118.2 25.199 159 66 40.799 40.8 66 96.9 66 159z" style="" fill="#c8aa30" data-original="#25d9f8" class="" opacity="1"></path><path d="M452 225.018c0 8.399-6.599 15-15 15s-15-6.601-15-15c0-37.2-15-70.8-39.6-95.4-24.6-24.6-58.2-39.6-95.4-39.6-8.401 0-15-6.601-15-15 0-8.401 6.599-15 15-15 45.601 0 86.7 18.6 116.7 48.3 29.7 30 48.3 71.1 48.3 116.7z" style="" fill="#c8aa30" data-original="#25d9f8" class="" opacity="1"></path><path d="M392 225.018c0 8.399-6.599 15-15 15s-15-6.601-15-15c0-20.7-8.401-39.6-21.899-53.101-13.5-13.5-32.401-21.899-53.101-21.899-8.401 0-15-6.601-15-15 0-8.401 6.599-15 15-15 28.801 0 55.201 11.7 74.099 30.899C380.3 169.817 392 196.218 392 225.018zM332 225.018c0 8.399-6.599 15-15 15s-15-6.601-15-15c0-4.2-1.8-7.8-4.2-10.8-2.999-2.401-6.599-4.2-10.8-4.2-8.401 0-15-6.601-15-15 0-8.401 6.599-15 15-15 12.599 0 23.699 5.1 31.8 13.2 8.101 8.099 13.2 19.199 13.2 31.8z" style="" fill="#c8aa30" data-original="#25d9f8" class="" opacity="1"></path><path d="M318.8 193.218c8.101 8.099 13.2 19.199 13.2 31.8 0 8.399-6.599 15-15 15s-15-6.601-15-15c0-4.2-1.8-7.8-4.2-10.8l21-21zM361.099 150.917c19.2 18.9 30.901 45.3 30.901 74.101 0 8.399-6.599 15-15 15s-15-6.601-15-15c0-20.7-8.401-39.6-21.899-53.101l20.998-21zM403.7 108.318c29.7 30 48.3 71.1 48.3 116.7 0 8.399-6.599 15-15 15s-15-6.601-15-15c0-37.2-15-70.8-39.6-95.4l21.3-21.3zM512 225.018c0 8.399-6.599 15-15 15s-15-6.601-15-15c0-53.701-21.899-102.601-57.299-137.701L446 66.019c40.799 40.799 66 96.899 66 158.999z" style="" fill="#d5bf66" data-original="#00c0f1" class="" opacity="1"></path></g></svg>