<svg xmlns="http://www.w3.org/2000/svg" version="1.1" xmlns:xlink="http://www.w3.org/1999/xlink" xmlns:svgjs="http://svgjs.com/svgjs" width="512" height="512" x="0" y="0" viewBox="0 0 512 512" style="enable-background:new 0 0 512 512" xml:space="preserve" class=""><g><path fill="#072f54" d="M208.483 366.236v45.44c0 18.469-14.972 33.441-33.441 33.441l80.928 10 .297-.037 10-44.404-10-44.441h-47.784z" data-original="#c8beb9" class="" opacity="1"></path><path fill="#19446b" d="M303.456 411.676v-45.44h-47.189v88.844l80.631-9.963c-18.47 0-33.442-14.972-33.442-33.441z" data-original="#9b9696" class="" opacity="1"></path><path fill="#878787" d="M45.267 15c-16.569 0-30 13.431-30 30v291.236c0 16.569 13.431 30 30 30h211l10-179.236-10-172z" data-original="#5a5555" class="" opacity="1"></path><path fill="#878787" d="M466.733 15H256.267v351.236h210.467c16.569 0 30-13.431 30-30V45c-.001-16.569-13.432-30-30.001-30z" data-original="#464141" class="" opacity="1"></path><path fill="#072f54" d="M89.06 445.117V512h167.207l10-33.441-10-33.442z" data-original="#ebe1dc" class="" opacity="1"></path><path fill="#072f54" d="M256.267 445.117h167.207V512H256.267z" data-original="#c8beb9" class="" opacity="1"></path><path fill="#072f54" d="M45.267 351.236c-8.271 0-15-6.729-15-15V45c0-8.271 6.729-15 15-15h211l10-15-10-15h-211c-24.813 0-45 20.187-45 45v291.236c0 24.813 20.187 45 45 45h211l10-15-10-15z" data-original="#ebe1dc" class="" opacity="1"></path><path fill="#072f54" d="M466.733 0H256.267v30h210.467c8.271 0 15 6.729 15 15v291.236c0 8.271-6.729 15-15 15H256.267v30h210.467c24.813 0 45-20.187 45-45V45c-.001-24.813-20.188-45-45.001-45z" data-original="#c8beb9" class="" opacity="1"></path><path fill="#ffe477" d="M193.933 60v69.734h30V90h32.334l10-16.333-10-13.667z" data-original="#ffe477" class=""></path><path fill="#ffb655" d="M256.267 60v30H288.6v39.734h30V60z" data-original="#ffb655" class=""></path><path fill="#dfc356" d="M103.283 181.869v139.298h152.984l10-72.834-10-66.464z" data-original="#c47e4e" class="" opacity="1"></path><path fill="#c8aa30" d="M256.267 181.869H409.25v139.298H256.267z" data-original="#9b5e34" class="" opacity="1"></path><path fill="#f1de92" d="M103.283 120.07v61.799l151.506 35.381h1.478l10-54.917-10-42.263z" data-original="#d19a75" class="" opacity="1"></path><path fill="#dfc356" d="M256.267 120.07v97.18h1.477l151.506-35.381V120.07z" data-original="#c47e4e" class="" opacity="1"></path></g></svg>